{
  "asset": {
    "version": "2.0"
  },
  "scene": 0,
  "scenes": [
    {
      "nodes": [0]
    }
  ],
  "nodes": [
    {
      "mesh": 0,
      "translation": [0, 0, 0]
    },
    {
      "mesh": 1,
      "translation": [0, 0.8, 1.2]
    },
    {
      "mesh": 2,
      "translation": [-0.3, 1.2, 1.2]
    },
    {
      "mesh": 3,
      "translation": [0.3, 1.2, 1.2]
    },
    {
      "mesh": 4,
      "translation": [0, 0.5, 2.5]
    }
  ],
  "meshes": [
    {
      "primitives": [
        {
          "attributes": {
            "POSITION": 0
          },
          "indices": 1,
          "material": 0
        }
      ]
    },
    {
      "primitives": [
        {
          "attributes": {
            "POSITION": 2
          },
          "indices": 3,
          "material": 0
        }
      ]
    },
    {
      "primitives": [
        {
          "attributes": {
            "POSITION": 4
          },
          "indices": 5,
          "material": 0
        }
      ]
    },
    {
      "primitives": [
        {
          "attributes": {
            "POSITION": 6
          },
          "indices": 7,
          "material": 0
        }
      ]
    },
    {
      "primitives": [
        {
          "attributes": {
            "POSITION": 8
          },
          "indices": 9,
          "material": 1
        }
      ]
    }
  ],
  "materials": [
    {
      "pbrMetallicRoughness": {
        "baseColorFactor": [0.8, 0.4, 0.2, 1.0],
        "metallicFactor": 0.0,
        "roughnessFactor": 0.8
      }
    },
    {
      "pbrMetallicRoughness": {
        "baseColorFactor": [1.0, 0.4, 0.8, 1.0],
        "metallicFactor": 0.0,
        "roughnessFactor": 0.6
      }
    }
  ],
  "accessors": [
    {
      "bufferView": 0,
      "componentType": 5126,
      "count": 24,
      "type": "VEC3",
      "max": [1.0, 1.0, 1.0],
      "min": [-1.0, -1.0, -1.0]
    },
    {
      "bufferView": 1,
      "componentType": 5123,
      "count": 36,
      "type": "SCALAR"
    },
    {
      "bufferView": 2,
      "componentType": 5126,
      "count": 24,
      "type": "VEC3",
      "max": [0.8, 0.8, 0.8],
      "min": [-0.8, -0.8, -0.8]
    },
    {
      "bufferView": 3,
      "componentType": 5123,
      "count": 36,
      "type": "SCALAR"
    },
    {
      "bufferView": 4,
      "componentType": 5126,
      "count": 12,
      "type": "VEC3",
      "max": [0.3, 0.6, 0.3],
      "min": [-0.3, 0.0, -0.3]
    },
    {
      "bufferView": 5,
      "componentType": 5123,
      "count": 18,
      "type": "SCALAR"
    },
    {
      "bufferView": 6,
      "componentType": 5126,
      "count": 12,
      "type": "VEC3",
      "max": [0.3, 0.6, 0.3],
      "min": [-0.3, 0.0, -0.3]
    },
    {
      "bufferView": 7,
      "componentType": 5123,
      "count": 18,
      "type": "SCALAR"
    },
    {
      "bufferView": 8,
      "componentType": 5126,
      "count": 8,
      "type": "VEC3",
      "max": [0.2, 0.2, 0.2],
      "min": [-0.2, -0.2, -0.2]
    },
    {
      "bufferView": 9,
      "componentType": 5123,
      "count": 12,
      "type": "SCALAR"
    }
  ],
  "bufferViews": [
    {
      "buffer": 0,
      "byteOffset": 0,
      "byteLength": 288
    },
    {
      "buffer": 0,
      "byteOffset": 288,
      "byteLength": 72
    },
    {
      "buffer": 0,
      "byteOffset": 360,
      "byteLength": 288
    },
    {
      "buffer": 0,
      "byteOffset": 648,
      "byteLength": 72
    },
    {
      "buffer": 0,
      "byteOffset": 720,
      "byteLength": 144
    },
    {
      "buffer": 0,
      "byteOffset": 864,
      "byteLength": 36
    },
    {
      "buffer": 0,
      "byteOffset": 900,
      "byteLength": 144
    },
    {
      "buffer": 0,
      "byteOffset": 1044,
      "byteLength": 36
    },
    {
      "buffer": 0,
      "byteOffset": 1080,
      "byteLength": 96
    },
    {
      "buffer": 0,
      "byteOffset": 1176,
      "byteLength": 24
    }
  ],
  "buffers": [
    {
      "uri": "data:application/octet-stream;base64,",
      "byteLength": 1200
    }
  ]
}
